<svg width="19" height="19" viewBox="0 0 19 19" fill="none" xmlns="http://www.w3.org/2000/svg">
    <path
        d="M9.02778 18.0555C7.79398 18.0555 6.62789 17.8186 5.52951 17.3446C4.43113 16.8706 3.47193 16.2237 2.65191 15.4036C1.83189 14.5836 1.1849 13.6244 0.710938 12.526C0.236979 11.4276 0 10.2616 0 9.02776C0 7.77892 0.236979 6.60907 0.710938 5.51822C1.1849 4.42736 1.83189 3.47192 2.65191 2.6519C3.47193 1.83187 4.43113 1.18488 5.52951 0.710924C6.62789 0.236965 7.79398 -1.33514e-05 9.02778 -1.33514e-05C10.2766 -1.33514e-05 11.4465 0.236965 12.5373 0.710924C13.6282 1.18488 14.5836 1.83187 15.4036 2.6519C16.2237 3.47192 16.8707 4.42736 17.3446 5.51822C17.8186 6.60907 18.0556 7.77892 18.0556 9.02776C18.0556 10.2616 17.8186 11.4276 17.3446 12.526C16.8707 13.6244 16.2237 14.5836 15.4036 15.4036C14.5836 16.2237 13.6282 16.8706 12.5373 17.3446C11.4465 17.8186 10.2766 18.0555 9.02778 18.0555ZM9.02778 16.2048C9.41898 15.6632 9.75752 15.0989 10.0434 14.5121C10.3293 13.9253 10.5625 13.3009 10.7431 12.6389H7.3125C7.49306 13.3009 7.72627 13.9253 8.01215 14.5121C8.29803 15.0989 8.63657 15.6632 9.02778 16.2048ZM6.68056 15.8437C6.40972 15.3472 6.17274 14.8319 5.96962 14.2977C5.76649 13.7636 5.59722 13.2106 5.46181 12.6389H2.79861C3.23495 13.3912 3.78038 14.0457 4.4349 14.6024C5.08941 15.1591 5.83796 15.5729 6.68056 15.8437ZM11.375 15.8437C12.2176 15.5729 12.9661 15.1591 13.6207 14.6024C14.2752 14.0457 14.8206 13.3912 15.2569 12.6389H12.5938C12.4583 13.2106 12.2891 13.7636 12.0859 14.2977C11.8828 14.8319 11.6458 15.3472 11.375 15.8437ZM2.03125 10.8333H5.10069C5.05556 10.5324 5.0217 10.2352 4.99913 9.94183C4.97656 9.64842 4.96528 9.34374 4.96528 9.02776C4.96528 8.71179 4.97656 8.4071 4.99913 8.1137C5.0217 7.8203 5.05556 7.52314 5.10069 7.22221H2.03125C1.95602 7.52314 1.89959 7.8203 1.86198 8.1137C1.82436 8.4071 1.80556 8.71179 1.80556 9.02776C1.80556 9.34374 1.82436 9.64842 1.86198 9.94183C1.89959 10.2352 1.95602 10.5324 2.03125 10.8333ZM6.90625 10.8333H11.1493C11.1944 10.5324 11.2283 10.2352 11.2509 9.94183C11.2734 9.64842 11.2847 9.34374 11.2847 9.02776C11.2847 8.71179 11.2734 8.4071 11.2509 8.1137C11.2283 7.8203 11.1944 7.52314 11.1493 7.22221H6.90625C6.86111 7.52314 6.82726 7.8203 6.80469 8.1137C6.78212 8.4071 6.77083 8.71179 6.77083 9.02776C6.77083 9.34374 6.78212 9.64842 6.80469 9.94183C6.82726 10.2352 6.86111 10.5324 6.90625 10.8333ZM12.9549 10.8333H16.0243C16.0995 10.5324 16.156 10.2352 16.1936 9.94183C16.2312 9.64842 16.25 9.34374 16.25 9.02776C16.25 8.71179 16.2312 8.4071 16.1936 8.1137C16.156 7.8203 16.0995 7.52314 16.0243 7.22221H12.9549C13 7.52314 13.0339 7.8203 13.0564 8.1137C13.079 8.4071 13.0903 8.71179 13.0903 9.02776C13.0903 9.34374 13.079 9.64842 13.0564 9.94183C13.0339 10.2352 13 10.5324 12.9549 10.8333ZM12.5938 5.41665H15.2569C14.8206 4.66434 14.2752 4.00982 13.6207 3.45311C12.9661 2.8964 12.2176 2.48263 11.375 2.21179C11.6458 2.70832 11.8828 3.22366 12.0859 3.7578C12.2891 4.29194 12.4583 4.84489 12.5938 5.41665ZM7.3125 5.41665H10.7431C10.5625 4.75462 10.3293 4.13019 10.0434 3.54339C9.75752 2.95658 9.41898 2.39235 9.02778 1.85068C8.63657 2.39235 8.29803 2.95658 8.01215 3.54339C7.72627 4.13019 7.49306 4.75462 7.3125 5.41665ZM2.79861 5.41665H5.46181C5.59722 4.84489 5.76649 4.29194 5.96962 3.7578C6.17274 3.22366 6.40972 2.70832 6.68056 2.21179C5.83796 2.48263 5.08941 2.8964 4.4349 3.45311C3.78038 4.00982 3.23495 4.66434 2.79861 5.41665Z"
        fill="#334155" />
</svg>