<svg width="29" height="34" viewBox="0 0 29 34" fill="none" xmlns="http://www.w3.org/2000/svg">
    <path
        d="M14.01 26.34C13.076 25.6006 12.0641 25.0266 10.9745 24.6179C9.88481 24.2093 8.75623 24.005 7.58873 24.005C6.77148 24.005 5.96882 24.112 5.18076 24.3261C4.3927 24.5401 3.63869 24.8417 2.91873 25.2309C2.51011 25.4449 2.11607 25.4352 1.73664 25.2017C1.3572 24.9682 1.16748 24.6277 1.16748 24.1801V10.1117C1.16748 9.89771 1.22099 9.69339 1.32801 9.49881C1.43503 9.30423 1.59556 9.15829 1.80961 9.061C2.70469 8.594 3.63869 8.24375 4.61161 8.01025C5.58452 7.77675 6.5769 7.66 7.58873 7.66C8.71731 7.66 9.82158 7.80593 10.9015 8.09781C11.9815 8.38968 13.0176 8.8275 14.01 9.41125V23.538C15.0024 22.9153 16.0434 22.4483 17.133 22.137C18.2227 21.8257 19.3221 21.67 20.4312 21.67C21.1317 21.67 21.8176 21.7284 22.489 21.8451C23.1603 21.9619 23.8364 22.137 24.5175 22.3705V8.3605C24.8094 8.45779 25.0964 8.55994 25.3785 8.66697C25.6607 8.77398 25.9379 8.90533 26.2104 9.061C26.4244 9.15829 26.5849 9.30423 26.692 9.49881C26.799 9.69339 26.8525 9.89771 26.8525 10.1117V24.1801C26.8525 24.6277 26.6628 24.9682 26.2833 25.2017C25.9039 25.4352 25.5099 25.4449 25.1012 25.2309C24.3813 24.8417 23.6273 24.5401 22.8392 24.3261C22.0511 24.112 21.2485 24.005 20.4312 24.005C19.2637 24.005 18.1351 24.2093 17.0455 24.6179C15.9558 25.0266 14.944 25.6006 14.01 26.34ZM16.345 20.5025V9.41125L22.1825 3.57375V15.2487L16.345 20.5025ZM11.675 22.3997V10.8414C11.0329 10.569 10.3664 10.3598 9.67564 10.2139C8.98487 10.068 8.28923 9.995 7.58873 9.995C6.86877 9.995 6.16827 10.0631 5.48723 10.1993C4.80619 10.3355 4.14461 10.5398 3.50248 10.8122V22.3997C4.18352 22.1467 4.8597 21.9619 5.53101 21.8451C6.20232 21.7284 6.88823 21.67 7.58873 21.67C8.28923 21.67 8.97514 21.7284 9.64645 21.8451C10.3178 21.9619 10.9939 22.1467 11.675 22.3997Z"
        fill="white" />
</svg>